# xmcd
#
# Track frame offsets:
#	150
#	18010
#	32715
#
# Disc length: 629 seconds
#
# Revision: 0
# Processed by: cddbd v1.5.1PL0 Copyright (c) Steve Scherf et al.
# Submitted via: audiograbber 1.82.01
#
DISCID=15027303
DTITLE=Madrugada - Beautyproof
DYEAR=1900
DGENRE=Alternative
TTITLE0=BeautyProof
TTITLE1=1990
TTITLE2=Kegends And Bones
EXTD=
EXTT0=
EXTT1=
EXTT2=
PLAYORDER=
